<?xml version="1.0" encoding="UTF-8"?><svg id="b" xmlns="http://www.w3.org/2000/svg" width="213.81" height="96.67" viewBox="0 0 213.81 96.67"><g id="c"><polygon points="196 22.05 196 31.66 188.79 31.66 188.79 55.67 179.19 55.67 179.19 31.66 171.98 31.66 171.98 46.06 162.38 46.06 162.38 31.66 155.17 31.66 155.17 55.67 145.57 55.67 145.57 31.66 99.67 31.66 83.03 22.05 64.06 11.09 27.42 32.25 27.42 55.67 17.81 55.67 17.81 26.7 27.42 21.16 54.45 5.55 64.06 0 73.67 5.55 102.24 22.05 196 22.05" fill="#18181b"/><rect x="59.12" y="31.66" width="9.61" height="24.01" fill="#18181b"/><text transform="translate(0 88.1)" fill="#18181b" font-family="JosefinSansRoman-Regular, &apos;Josefin Sans&apos;" font-size="36.76" font-variation-settings="&apos;wght&apos; 400"><tspan x="0" y="0" letter-spacing="-.02em">So</tspan><tspan x="39.96" y="0" letter-spacing="-.04em">k</tspan><tspan x="56.94" y="0" letter-spacing="-.02em">ey Homes</tspan></text></g></svg>