<?xml version="1.0" encoding="UTF-8"?><svg id="b" xmlns="http://www.w3.org/2000/svg" width="76.36" height="89" xmlns:xlink="http://www.w3.org/1999/xlink" viewBox="0 0 76.36 89"><defs><style>.g{fill:url(#f);}.h{fill:url(#e);}.i{fill:url(#d);}</style><linearGradient id="d" x1="-3.671" y1="6.214" x2="66.923" y2="90.517" gradientUnits="userSpaceOnUse"><stop offset=".102" stop-color="#613cbf"/><stop offset=".197" stop-color="#6146bb"/><stop offset=".363" stop-color="#6163b1"/><stop offset=".58" stop-color="#6191a2"/><stop offset=".836" stop-color="#61d18c"/><stop offset=".876" stop-color="#62dc89"/></linearGradient><linearGradient id="e" x1="23.309" y1="27.447" x2="34.591" y2="36.489" gradientUnits="userSpaceOnUse"><stop offset="0" stop-color="#613cbf"/><stop offset=".12" stop-color="#6145bb"/><stop offset=".32" stop-color="#615eb3"/><stop offset=".575" stop-color="#6188a5"/><stop offset=".872" stop-color="#61c192"/><stop offset="1" stop-color="#62dc89"/></linearGradient><linearGradient id="f" x1="41.49" y1="24.545" x2="50.122" y2="37.54" gradientUnits="userSpaceOnUse"><stop offset="0" stop-color="#cce0f4"/><stop offset="0" stop-color="#c5d6f0"/><stop offset="0" stop-color="#b5bde8"/><stop offset="0" stop-color="#9a93db"/><stop offset="0" stop-color="#755ac8"/><stop offset="0" stop-color="#613cbf"/><stop offset=".122" stop-color="#6146bb"/><stop offset=".335" stop-color="#6163b1"/><stop offset=".613" stop-color="#6191a2"/><stop offset=".942" stop-color="#61d18c"/><stop offset=".994" stop-color="#62dc89"/></linearGradient></defs><g id="c"><path class="i" d="M72.441,21.762c-2.618-5.536-6.154-9.922-10.639-13.124-4.486-3.202-9.505-5.436-15.059-6.72-5.553-1.284-11.306-1.918-17.276-1.918H2.085C.7,0,0,.75,0,2.235v59.217c.467-.6.901-1.234,1.284-1.884,4.102-6.971,5.52-15.709,7.004-23.48,1.218-6.237,1.584-13.274,6.42-18.277,4.919-5.103,13.007-7.938,21.295-7.488.6.033,1.201.067,1.784.133,5.987.667,11.607,3.018,15.676,6.554,2.001,1.734,3.619,3.735,4.736,5.887,1.351,2.568,1.701,5.17,1.968,7.904.734,7.988-.484,15.976.133,23.947.3,3.952,1.051,7.904,2.735,11.59,1.184,2.585,3.035,4.636,4.803,6.77,5.687-7.337,8.521-17.393,8.521-30.2,0-8.538-1.301-15.592-3.919-21.145ZM52.996,81.779c-3.485.634-5.97,3.035-9.322,3.685-5.77,1.117-10.089-3.569-14.892-5.503-2.618-1.051-5.57-1.334-8.371-.867-3.035.484-4.869,2.151-7.604,3.185-1.551.567-3.335.801-4.92.284-1.817-.584-3.118-1.984-4.402-3.269-1.017-1.017-2.218-1.551-3.485-1.901v9.539c0,1.384.7,2.068,2.085,2.068h26.415c11.657,0,21.412-2.368,29.267-7.137-1.518-.283-3.085-.4-4.77-.083Z"/><ellipse class="h" cx="28.866" cy="31.901" rx="2.918" ry="6.67"/><ellipse class="g" cx="46.376" cy="31.901" rx="2.918" ry="6.67"/></g></svg>