<?xml version="1.0" encoding="UTF-8"?><svg id="b" xmlns="http://www.w3.org/2000/svg" width="55.87" height="65.12" viewBox="0 0 55.87 65.12"><g id="c"><path d="M53,15.92c-1.92-4.05-4.5-7.26-7.78-9.6s-6.95-3.98-11.02-4.92c-4.06-.94-8.27-1.4-12.64-1.4H1.53C.51,0,0,.55,0,1.63v43.33c.34-.44.66-.9.94-1.38,3-5.1,4.04-11.49,5.12-17.18.89-4.56,1.16-9.71,4.7-13.37,3.6-3.73,9.52-5.81,15.58-5.48.44.02.88.05,1.31.1,4.38.49,8.49,2.21,11.47,4.8,1.46,1.27,2.65,2.73,3.47,4.31.99,1.88,1.24,3.78,1.44,5.78.54,5.84-.35,11.69.1,17.52.22,2.89.77,5.78,2,8.48.87,1.89,2.22,3.39,3.51,4.95,4.16-5.37,6.24-12.73,6.24-22.1,0-6.25-.95-11.41-2.87-15.47ZM38.78,59.84c-2.55.46-4.37,2.22-6.82,2.7-4.22.82-7.38-2.61-10.9-4.03-1.92-.77-4.08-.98-6.13-.63-2.22.35-3.56,1.57-5.56,2.33-1.13.41-2.44.59-3.6.21-1.33-.43-2.28-1.45-3.22-2.39-.74-.74-1.62-1.13-2.55-1.39v6.98c0,1.01.51,1.51,1.53,1.51h19.33c8.53,0,15.67-1.73,21.41-5.22-1.11-.21-2.26-.29-3.49-.06Z" fill="#09090b"/><ellipse cx="21.12" cy="23.34" rx="3" ry="5" fill="#09090b"/><ellipse cx="33.93" cy="23.34" rx="3" ry="5" fill="#09090b"/></g></svg>