<?xml version="1.0" encoding="UTF-8"?><svg id="b" xmlns="http://www.w3.org/2000/svg" width="544.55" height="86.33" viewBox="0 0 544.55 86.33"><g id="c"><path d="M53,17.1c-1.92-4.05-4.5-7.26-7.78-9.6-3.28-2.34-6.95-3.98-11.02-4.92-4.06-.94-8.27-1.4-12.64-1.4H1.53c-1.01,0-1.53.55-1.53,1.63v43.33c.34-.44.66-.9.94-1.38,3-5.1,4.04-11.49,5.12-17.18.89-4.56,1.16-9.71,4.7-13.37,3.6-3.73,9.52-5.81,15.58-5.48.44.02.88.05,1.31.1,4.38.49,8.49,2.21,11.47,4.8,1.46,1.27,2.65,2.73,3.47,4.31.99,1.88,1.24,3.78,1.44,5.78.54,5.84-.35,11.69.1,17.52.22,2.89.77,5.78,2,8.48.87,1.89,2.22,3.39,3.51,4.95,4.16-5.37,6.24-12.73,6.24-22.1,0-6.25-.95-11.41-2.87-15.47ZM38.78,61.01c-2.55.46-4.37,2.22-6.82,2.7-4.22.82-7.38-2.61-10.9-4.03-1.92-.77-4.08-.98-6.13-.63-2.22.35-3.56,1.57-5.56,2.33-1.13.41-2.44.59-3.6.21-1.33-.43-2.28-1.45-3.22-2.39-.74-.74-1.62-1.13-2.55-1.39v6.98c0,1.01.51,1.51,1.53,1.51h19.33c8.53,0,15.67-1.73,21.41-5.22-1.11-.21-2.26-.29-3.49-.06Z" fill="#09090b"/><path d="M63.02,9.61c0-2.26.82-4.24,2.46-5.92,1.64-1.68,3.63-2.52,5.97-2.52s4.31.84,5.91,2.52c1.6,1.68,2.4,3.65,2.4,5.92s-.8,4.33-2.4,5.97c-1.6,1.64-3.57,2.46-5.91,2.46s-4.33-.82-5.97-2.46c-1.64-1.64-2.46-3.63-2.46-5.97ZM63.96,64.78V22.61c0-1.01.51-1.52,1.52-1.52h2.69c3.75,0,6.58.88,8.49,2.64,1.91,1.76,2.87,4.71,2.87,8.84v32.21c0,1.02-.55,1.52-1.64,1.52h-12.42c-1.02,0-1.52-.51-1.52-1.52Z" fill="#09090b"/><path d="M92.07,67.47c1.33,1.01,3.18,2.11,5.56,3.28,2.38,1.17,5.29,1.76,8.73,1.76,4.53,0,7.69-.8,9.49-2.4,1.8-1.6,2.7-3.65,2.7-6.15v-1.87c-1.41,1.25-3.05,2.27-4.92,3.05-1.88.78-3.98,1.17-6.33,1.17-4.53,0-8.34-1-11.42-2.99-3.09-1.99-5.41-4.72-6.97-8.2-1.56-3.47-2.34-7.4-2.34-11.77s.84-8.36,2.52-11.95c1.68-3.59,4.1-6.44,7.26-8.55,3.16-2.11,6.89-3.16,11.19-3.16,3.12,0,5.78.49,7.96,1.46,2.19.98,4.02,2.13,5.51,3.46,1.79-2.34,4.88-3.51,9.25-3.51h2.34c1.02,0,1.52.51,1.52,1.52v41.23c0,6.79-1.95,12.24-5.86,16.34-3.91,4.1-9.8,6.15-17.69,6.15-4.38,0-8.2-.86-11.48-2.58-3.28-1.72-5.82-3.89-7.61-6.5-1.8-2.62-2.7-5.25-2.7-7.91,0-.78.14-1.43.41-1.93.27-.51.68-.76,1.23-.76.31,0,.59.1.82.29.24.19.51.37.82.53ZM110.81,52.95c.86,0,1.89-.21,3.1-.64,1.21-.43,2.29-1.33,3.22-2.69.94-1.36,1.41-3.42,1.41-6.15s-.47-4.74-1.41-6.03-2.01-2.13-3.22-2.52c-1.21-.39-2.24-.59-3.1-.59-.78,0-1.84.2-3.16.59-1.33.39-2.5,1.23-3.52,2.52s-1.52,3.3-1.52,6.03.49,4.78,1.47,6.15c.97,1.37,2.13,2.27,3.46,2.69,1.33.43,2.42.64,3.28.64Z" fill="#09090b"/><path d="M141.26,9.61c0-2.26.82-4.24,2.46-5.92,1.64-1.68,3.63-2.52,5.97-2.52s4.31.84,5.91,2.52c1.6,1.68,2.4,3.65,2.4,5.92s-.8,4.33-2.4,5.97c-1.6,1.64-3.57,2.46-5.91,2.46s-4.33-.82-5.97-2.46c-1.64-1.64-2.46-3.63-2.46-5.97ZM142.2,64.78V22.61c0-1.01.51-1.52,1.52-1.52h2.7c3.75,0,6.58.88,8.49,2.64s2.87,4.71,2.87,8.84v32.21c0,1.02-.55,1.52-1.64,1.52h-12.42c-1.02,0-1.52-.51-1.52-1.52Z" fill="#09090b"/><path d="M171.72,34.79h-7.38c-1.02,0-1.52-.51-1.52-1.52v-10.66c0-1.01.51-1.52,1.52-1.52h7.38V7.03c0-.94.47-1.41,1.41-1.41h2.69c3.67,0,6.48.84,8.43,2.52,1.95,1.68,2.93,4.59,2.93,8.73v4.22h9.14c.94,0,1.41.51,1.41,1.52v10.66c0,1.02-.47,1.52-1.41,1.52h-9.14v29.99c0,1.02-.55,1.52-1.64,1.52h-12.42c-.94,0-1.41-.51-1.41-1.52v-29.99Z" fill="#09090b"/><path d="M233.21,63.02c-1.4,1.25-3.03,2.27-4.86,3.05-1.84.78-3.97,1.17-6.38,1.17-4.53,0-8.34-1.07-11.42-3.22-3.08-2.15-5.41-5.04-6.97-8.67-1.56-3.63-2.34-7.63-2.34-12.01s.84-8.45,2.52-12.01c1.68-3.55,4.1-6.36,7.26-8.43,3.16-2.07,6.89-3.1,11.19-3.1,5.78,0,10.27,1.72,13.47,5.15.86-1.41,2.11-2.4,3.75-2.99,1.64-.59,3.59-.88,5.86-.88h1.99c1.01,0,1.52.51,1.52,1.52v42.17c0,1.02-.51,1.52-1.52,1.52h-12.54c-1.02,0-1.52-.51-1.52-1.52v-1.76ZM225.48,52.95c.86,0,1.89-.21,3.11-.64,1.21-.43,2.28-1.33,3.22-2.69.94-1.36,1.4-3.42,1.4-6.15s-.47-4.72-1.4-5.97c-.94-1.25-2.01-2.07-3.22-2.46-1.21-.39-2.24-.59-3.11-.59-.78,0-1.84.2-3.16.59-1.33.39-2.5,1.21-3.51,2.46-1.02,1.25-1.52,3.24-1.52,5.97s.51,4.78,1.52,6.15c1.01,1.37,2.17,2.27,3.46,2.69,1.29.43,2.36.64,3.22.64Z" fill="#09090b"/><path d="M270.7,67.24c-4.06,0-7.36-1.31-9.9-3.92-2.54-2.61-3.81-6.66-3.81-12.12V2.81c0-1.09.51-1.64,1.52-1.64h2.69c3.67,0,6.46.88,8.38,2.64,1.91,1.76,2.87,4.71,2.87,8.84v36.78c0,1.95.33,3.24,1,3.87.66.63,1.58.94,2.75.94.86,0,1.68-.19,2.46-.59.78-.39,1.52-.86,2.23-1.41.15-.16.37-.29.64-.41.27-.12.56-.18.88-.18.55,0,.92.27,1.11.82.19.55.29,1.02.29,1.41,0,2.03-.43,4.08-1.29,6.15-.86,2.07-2.24,3.79-4.16,5.15-1.91,1.37-4.47,2.05-7.67,2.05Z" fill="#09090b"/><path d="M345.54,50.13v-7.15h-5.97c-5.39,0-8.08-2.62-8.08-7.85v-4.8c0-1.33.59-1.99,1.76-1.99h25.54c1.33,0,1.99.66,1.99,1.99v24.83c0,1.17-.18,2.13-.53,2.87-.35.74-1.07,1.46-2.17,2.17-3.75,2.81-7.3,4.71-10.66,5.68-3.36.98-7.19,1.46-11.48,1.46s-8.51-.61-12.42-1.82c-3.91-1.21-7.38-3.12-10.43-5.74-3.05-2.62-5.45-6.11-7.2-10.48-1.76-4.37-2.64-9.72-2.64-16.05,0-6.95,1.35-12.9,4.04-17.86,2.7-4.96,6.52-8.77,11.48-11.42,4.96-2.65,10.87-3.98,17.75-3.98,2.81,0,5.64.18,8.49.53,2.85.35,5.45,1.07,7.79,2.17,4.61,1.87,6.21,5.23,4.8,10.07l-1.29,5.15c-.16.94-.62,1.41-1.41,1.41-.39,0-.84-.12-1.35-.35-.51-.23-.96-.39-1.35-.47-2.27-1.17-4.45-2.07-6.56-2.69-2.11-.62-4.76-.94-7.96-.94-5.47,0-9.8,1.46-13,4.39-3.2,2.93-4.8,7.91-4.8,14.93,0,5.86,1.38,10.39,4.16,13.59,2.77,3.2,6.66,4.8,11.66,4.8,3.51,0,6.79-.82,9.84-2.46Z" fill="#09090b"/><path d="M384.2,23.78c2.58-2.58,6.09-3.87,10.54-3.87,5.23,0,9.55,1.66,12.95,4.98,3.4,3.32,5.1,8.45,5.1,15.4v24.48c0,1.02-.55,1.52-1.64,1.52h-12.42c-1.02,0-1.52-.51-1.52-1.52v-22.02c0-3.28-.63-5.56-1.88-6.85-1.25-1.29-2.77-1.93-4.57-1.93-1.95,0-3.53.68-4.74,2.05-1.21,1.37-1.82,3.38-1.82,6.03v22.72c0,1.02-.51,1.52-1.52,1.52h-12.42c-1.02,0-1.52-.51-1.52-1.52V2.81c0-1.09.51-1.64,1.52-1.64h2.69c3.67,0,6.46.88,8.38,2.64,1.91,1.76,2.87,4.71,2.87,8.84v11.13Z" fill="#09090b"/><path d="M443.35,67.35c-7.34,0-13.14-2.2-17.39-6.62-4.26-4.41-6.38-10.17-6.38-17.28s2.11-12.92,6.32-17.22c4.22-4.29,9.96-6.44,17.22-6.44s13.02,2.17,17.28,6.5c4.26,4.33,6.38,10.09,6.38,17.28s-2.09,12.85-6.27,17.22c-4.18,4.37-9.9,6.56-17.16,6.56ZM443.11,53.53c2.26,0,4.14-.74,5.62-2.23s2.23-4.02,2.23-7.61-.76-6.25-2.29-7.73c-1.52-1.48-3.34-2.23-5.45-2.23s-4.04.74-5.56,2.23c-1.52,1.48-2.29,4.06-2.29,7.73s.74,6.13,2.23,7.61c1.48,1.48,3.32,2.23,5.51,2.23Z" fill="#09090b"/><path d="M470.53,52.71c0-.94.19-1.6.59-1.99.39-.39.78-.59,1.17-.59.31,0,.65.1,1,.29.35.2.8.49,1.35.88,1.09.7,2.62,1.5,4.57,2.4,1.95.9,4.49,1.35,7.61,1.35,1.56,0,2.7-.25,3.4-.76.7-.51,1.06-1.07,1.06-1.7,0-.86-.65-1.58-1.93-2.17-1.29-.59-2.89-1.17-4.8-1.76-1.92-.59-3.85-1.41-5.8-2.46-1.95-1.05-3.57-2.5-4.86-4.33-1.29-1.83-1.93-4.23-1.93-7.2,0-3.51.86-6.36,2.58-8.55,1.72-2.19,3.93-3.79,6.62-4.8,2.7-1.01,5.45-1.52,8.26-1.52,2.26,0,4.37.2,6.33.59,1.95.39,3.55.82,4.8,1.29,2.26,1.02,3.79,2.25,4.57,3.69.78,1.45.74,3.53-.12,6.27l-.82,2.69c-.24.63-.59.94-1.06.94-.31,0-.59-.06-.82-.18s-.51-.21-.82-.29c-3.83-1.64-7.42-2.46-10.78-2.46-1.17,0-1.97.2-2.4.59-.43.39-.64.82-.64,1.29,0,.94.64,1.7,1.93,2.28s2.89,1.19,4.8,1.82c1.91.63,3.85,1.45,5.8,2.46,1.95,1.02,3.57,2.38,4.86,4.1,1.29,1.72,1.93,3.98,1.93,6.79,0,4.61-1.6,8.4-4.8,11.36-3.2,2.97-7.46,4.45-12.77,4.45-3.51,0-6.7-.68-9.54-2.05-2.85-1.36-5.12-3.18-6.79-5.45-1.68-2.26-2.52-4.69-2.52-7.26Z" fill="#09090b"/><path d="M518.55,34.79h-7.38c-1.02,0-1.52-.51-1.52-1.52v-10.66c0-1.01.51-1.52,1.52-1.52h7.38V7.03c0-.94.47-1.41,1.41-1.41h2.7c3.67,0,6.48.84,8.43,2.52,1.95,1.68,2.93,4.59,2.93,8.73v4.22h9.14c.94,0,1.41.51,1.41,1.52v10.66c0,1.02-.47,1.52-1.41,1.52h-9.14v29.99c0,1.02-.55,1.52-1.64,1.52h-12.42c-.94,0-1.41-.51-1.41-1.52v-29.99Z" fill="#09090b"/><ellipse cx="21.12" cy="24.52" rx="3" ry="5" fill="#09090b"/><ellipse cx="33.93" cy="24.52" rx="3" ry="5" fill="#09090b"/></g></svg>